<?xml version="1.0" encoding="utf-8"?>
<!-- Generator: Adobe Illustrator 21.1.0, SVG Export Plug-In . SVG Version: 6.00 Build 0)  -->
<svg version="1.1" id="Layer_1" xmlns="http://www.w3.org/2000/svg" xmlns:xlink="http://www.w3.org/1999/xlink" x="0px" y="0px"
	 viewBox="0 0 120.2 41" style="enable-background:new 0 0 120.2 41;" xml:space="preserve">
<style type="text/css">
	.st0{fill:#231F20;}
</style>
<title>logo-htmlacademy</title>
<path class="st0" d="M49.6,29.9c0.2,0,0.4,0,0.6-0.1v1.5c-0.4,0.2-0.9,0.2-1.3,0.2c-0.8,0.1-1.5-0.4-1.9-1.1c-1,0.8-2.2,1.2-3.5,1.2
	c-1.7,0-3.2-0.9-3.2-2.8c0-2.4,2.2-3.1,4.1-3.1c0.8,0,1.6,0.1,2.4,0.3v-0.3c0-1.2-0.8-2-2.4-2c-1.1,0-2.3,0.2-3.3,0.7v-1.9
	c1.1-0.4,2.3-0.6,3.5-0.6c2.6,0,4.2,1.2,4.2,4.1v3.3c0,0.3,0.2,0.6,0.5,0.7C49.5,29.9,49.6,29.9,49.6,29.9L49.6,29.9z M42.5,28.6
	c0.1,0.8,0.8,1.4,1.6,1.4c0,0,0,0,0,0c0,0,0.1,0,0.1,0c1,0,2-0.4,2.7-1.1v-1.6c-0.7-0.1-1.3-0.2-2-0.2
	C43.7,27.1,42.5,27.5,42.5,28.6L42.5,28.6z"/>
<path class="st0" d="M56.2,21.8c1,0,2,0.2,2.9,0.7v1.9c-0.8-0.5-1.7-0.8-2.6-0.8c-1.7-0.2-3.2,1.1-3.3,2.8c-0.2,1.7,1.1,3.2,2.8,3.3
	c0.2,0,0.4,0,0.6,0c0.9,0,1.9-0.2,2.7-0.7V31c-1,0.4-2,0.7-3.1,0.6c-2.6,0.2-4.8-1.8-5-4.4c0-0.2,0-0.3,0-0.5c-0.1-2.7,2-4.9,4.7-5
	C55.9,21.8,56.1,21.8,56.2,21.8z"/>
<path class="st0" d="M69.8,29.9c0.2,0,0.4,0,0.6-0.1v1.5c-0.4,0.2-0.9,0.2-1.3,0.2c-0.8,0.1-1.5-0.4-1.9-1.1c-1,0.8-2.2,1.2-3.5,1.2
	c-1.7,0-3.2-0.9-3.2-2.8c0-2.4,2.2-3.1,4.1-3.1c0.8,0,1.6,0.1,2.4,0.3v-0.3c0-1.2-0.8-2-2.4-2c-1.1,0-2.3,0.2-3.3,0.7v-1.9
	c1.1-0.4,2.3-0.6,3.5-0.6c2.6,0,4.2,1.2,4.2,4.1v3.3c0,0.3,0.2,0.6,0.5,0.7C69.6,29.9,69.7,29.9,69.8,29.9L69.8,29.9z M62.6,28.6
	c0.1,0.8,0.8,1.4,1.6,1.4c0,0,0,0,0,0c0,0,0.1,0,0.1,0c1,0,2-0.4,2.7-1.1v-1.6c-0.7-0.1-1.3-0.2-2-0.2
	C63.8,27.1,62.6,27.5,62.6,28.6L62.6,28.6z"/>
<path class="st0" d="M81.2,17.8v13.5h-1.9v-1.5c-0.8,1.1-2.2,1.8-3.6,1.7c-2.7-0.2-4.7-2.6-4.5-5.3c0.2-2.4,2.1-4.3,4.5-4.5
	c1.3,0,2.5,0.5,3.3,1.5v-5.4H81.2z M76.2,23.6c-1.7,0-3.1,1.4-3.1,3.1c0,1.7,1.4,3.1,3.1,3.1c1.3,0,2.5-0.8,3-2v-2.3
	C78.6,24.4,77.5,23.6,76.2,23.6z"/>
<path class="st0" d="M87.9,21.8c3.7,0,5,3,4.4,5.7h-7c0.2,1.7,1.9,2.4,3.6,2.4c1,0,2-0.2,2.9-0.7V31c-1.1,0.4-2.2,0.7-3.3,0.6
	c-2.8,0-5.3-1.6-5.3-4.9c-0.1-2.6,1.8-4.8,4.4-4.9C87.7,21.8,87.8,21.8,87.9,21.8z M88,23.5c-1.4-0.1-2.6,0.9-2.7,2.3c0,0,0,0,0,0
	v0.1h5.1c0.1-1.2-0.7-2.3-1.9-2.4C88.4,23.5,88.2,23.5,88,23.5L88,23.5z"/>
<path class="st0" d="M94.4,31.4v-9.3h1.8v1.2c0.8-0.9,1.9-1.4,3.1-1.4c1.2-0.1,2.3,0.5,2.9,1.5c0.8-0.9,2-1.4,3.2-1.5
	c1.9-0.1,3.5,1.4,3.5,3.3c0,0.2,0,0.3,0,0.5v5.8h-2.1v-5.7c0.1-1-0.6-1.8-1.6-1.9c-0.1,0-0.2,0-0.3,0c-0.9,0.1-1.8,0.5-2.3,1.2v6.4
	h-2.1v-5.7c0.1-1-0.6-1.8-1.6-1.9c-0.1,0-0.2,0-0.3,0c-1,0.1-1.9,0.6-2.5,1.4v6.3h-2.1L94.4,31.4z"/>
<path class="st0" d="M118.1,22.1h2.1l-4.3,10.5c-1,2.4-2.3,3.2-3.7,3.2c-0.4,0-0.8-0.1-1.2-0.2v-1.8c0.3,0.1,0.6,0.1,0.9,0.1
	c1,0,1.8-0.7,2.3-2.1l0.2-0.5l-4.4-9.3h2.3l3.2,7L118.1,22.1z"/>
<path class="st0" d="M43.1,1.6v5.3c0.8-0.8,1.9-1.3,3-1.3c2-0.1,3.7,1.4,3.8,3.4c0,0.1,0,0.3,0,0.4v5.7h-2.1V9.7
	c0.1-1.1-0.7-2.1-1.8-2.2c-0.1,0-0.2,0-0.3,0c-1.1,0.1-2,0.6-2.6,1.5v6.1H41V1.6H43.1L43.1,1.6z"/>
<path class="st0" d="M55.6,2.5v3.3h3.4v1.8h-3.4v4.2c0,1.2,0.6,1.6,1.8,1.6c0.6,0,1.3-0.1,1.9-0.4v1.8c-0.8,0.3-1.6,0.4-2.5,0.4
	c-1.6,0.2-3-0.9-3.2-2.5c0-0.2,0-0.4,0-0.6V7.6h-1.7V5.8h1.7V3L55.6,2.5z"/>
<path class="st0" d="M61.6,15.1V5.8h1.8V7c0.8-0.9,1.9-1.4,3.1-1.4c1.2-0.1,2.3,0.5,2.9,1.5c0.8-0.9,2-1.4,3.2-1.5
	c1.9-0.1,3.5,1.4,3.5,3.3c0,0.2,0,0.3,0,0.5v5.8H74V9.4c0.1-1-0.6-1.8-1.6-1.9c-0.1,0-0.2,0-0.3,0c-0.9,0.1-1.8,0.5-2.3,1.2v6.4
	h-2.1V9.4c0.1-1-0.6-1.8-1.6-1.9c-0.1,0-0.2,0-0.3,0C65,7.5,64,8,63.5,8.9v6.3h-2.1L61.6,15.1z"/>
<rect x="79.2" y="1.6" class="st0" width="2.1" height="13.5"/>
<path class="st0" d="M16.4,0h-0.2L0,1.7v29.7L16.2,41l16.2-9.6V1.7L16.4,0z M30.3,30.1l-14.1,8.4L2.1,30.1V18l14,8.3v1.5l-9.6-5.7
	v1.5l9.7,5.8v1.5l-9.6-5.7v1.5l9.7,5.8l0,0l9.7-5.8v-1.5l0,0v-4.8l4.3-2.6L30.3,30.1L30.3,30.1z M30.3,16.2l-3.9,2.3l0,0l-1.8,1.1
	l-8.5-5v1.5l7.2,4.3h-0.1l-0.2,0.1L22.1,21l-6-3.6v1.5l4.7,2.8l-1.1,0.7l0,0l-3.6-2.1v1.5l2.3,1.4l-2.4,1.4L2.2,16.3l14-8.4l0,0
	L30.3,16.2z M30.3,14.7L16.1,6.4l0,0l-14,8.3V3.6l14.1-1.5l14.1,1.5L30.3,14.7L30.3,14.7z"/>
</svg>
